<svg width="1000" height="1000" viewBox="0 0 1000 1000" fill="none" xmlns="http://www.w3.org/2000/svg">
<g clip-path="url(#clip0_240_699)">
<g filter="url(#filter0_d_240_699)">
<path d="M489.71 14.6108L483.86 20.4608V48.7509C483.86 80.5509 484.44 79.3808 468.84 79.3808C463.96 79.3808 450.7 80.7509 439.19 82.5009C249.76 110.591 103.25 261.391 81.01 451.011C79.45 464.861 78.08 477.931 78.08 479.691C78.08 482.811 75.54 483.201 50.57 483.201C17.02 483.201 10 486.121 10 499.781C10 513.441 17.02 516.361 50.58 516.361C75.55 516.361 78.09 516.751 78.09 519.871C78.09 521.631 79.46 534.701 81.02 548.551C95.46 672.431 163.15 782.061 268.3 852.101C304.78 876.491 359.6 900.091 404.08 910.431C425.34 915.501 456.75 920.181 468.65 920.181C484.45 920.181 483.87 919.011 483.87 950.811V979.101L489.72 984.951C494.79 989.831 496.74 990.611 502.01 989.631C514.69 987.091 516.06 983.781 516.64 951.391C517.23 923.101 517.42 922.131 521.52 921.351C523.86 920.961 535.96 919.601 548.25 918.421C594.09 913.741 641.7 899.891 685.78 878.231C822.34 810.931 912.27 676.321 921.44 525.131L921.83 517.331L951.48 516.351C978.99 515.371 981.52 514.981 985.62 511.081C991.47 505.231 991.47 494.301 985.62 488.451C981.52 484.551 978.99 484.161 951.48 483.181L921.83 482.201L921.44 474.401C912.07 321.281 818.81 183.751 679.72 118.001C638.95 98.8809 581.4 83.0809 542.38 80.3509C514.48 78.4009 517.41 81.9108 516.63 48.1608C516.05 15.7808 514.68 12.4609 502 9.92088C496.73 8.95088 494.78 9.73083 489.71 14.6108ZM483.86 138.681C483.86 164.041 484.25 167.161 487.96 171.841C490.89 175.551 493.81 176.911 498.49 176.911C514.49 176.911 517.02 171.641 517.02 136.921C517.02 122.481 517.6 110.581 518.58 110.581C519.36 110.581 531.46 111.951 545.31 113.511C689.67 130.481 813.94 228.021 864.85 364.391C876.95 396.771 885.14 434.231 888.46 471.881L889.43 483.191H861.34C835 483.191 833.05 483.391 828.18 487.681C820.77 493.921 820.77 505.631 828.18 511.871C833.06 516.161 835.01 516.361 861.34 516.361H889.43L888.46 527.481C883.78 581.521 870.51 629.311 847.29 674.961C798.13 771.331 712.88 842.341 608.9 873.171C589.78 878.831 552.52 885.651 529.3 887.801L517.01 888.971V862.441C517.01 827.911 514.47 822.641 498.48 822.641C493.8 822.641 490.87 824.011 487.95 827.711C484.24 832.391 483.85 835.511 483.85 861.071V889.161L473.71 887.991C423.96 882.531 407.19 879.021 373.05 867.121C248.59 824.401 153 719.451 121.78 591.471C117.1 572.351 111.25 533.531 111.25 522.021V516.361H137.59C171.14 516.361 177.58 513.631 177.58 499.781C177.58 485.931 171.14 483.201 137.59 483.201H111.25V477.541C111.25 474.221 112.62 461.741 114.18 449.451C137.39 271.531 281.17 131.661 459.67 112.741C486.98 109.811 483.86 106.491 483.86 138.681Z" fill="#71FFE5"/>
<path d="M492.64 485.541C486.59 488.861 483.86 493.151 483.86 499.591C484.06 506.421 486.79 510.711 493.03 514.031C499.47 517.541 504.54 516.761 510.39 511.691C524.63 499.581 509.02 476.371 492.64 485.541Z" fill="#71FFE5"/>
</g>
</g>
<defs>
<filter id="filter0_d_240_699" x="6" y="5.55737" width="996.008" height="996.443" filterUnits="userSpaceOnUse" color-interpolation-filters="sRGB">
<feFlood flood-opacity="0" result="BackgroundImageFix"/>
<feColorMatrix in="SourceAlpha" type="matrix" values="0 0 0 0 0 0 0 0 0 0 0 0 0 0 0 0 0 0 127 0" result="hardAlpha"/>
<feOffset dx="4" dy="4"/>
<feGaussianBlur stdDeviation="4"/>
<feComposite in2="hardAlpha" operator="out"/>
<feColorMatrix type="matrix" values="0 0 0 0 0 0 0 0 0 0 0 0 0 0 0 0 0 0 0.5 0"/>
<feBlend mode="normal" in2="BackgroundImageFix" result="effect1_dropShadow_240_699"/>
<feBlend mode="normal" in="SourceGraphic" in2="effect1_dropShadow_240_699" result="shape"/>
</filter>
<clipPath id="clip0_240_699">
<rect width="1000" height="1000" fill="white"/>
</clipPath>
</defs>
</svg>
